# Blender v2.76 (sub 0) OBJ File: 'flag.blend'
# www.blender.org
mtllib flag.mtl
o Plane
v 1.473198 2.720695 -0.067361
v 0.147040 2.718110 -0.073910
v 1.468517 3.306359 -0.063588
v 0.147040 3.332096 -0.073910
v 1.450023 3.010504 -0.087845
v 0.844153 2.736189 -0.080077
v 0.147040 3.025103 -0.073910
v 0.847944 3.344259 -0.100853
v 0.847511 3.017191 -0.032796
v 1.506646 2.874928 -0.119681
v 0.486257 2.720241 -0.073147
v 0.147040 3.178599 -0.073910
v 1.137614 3.326986 -0.033870
v 1.481947 3.183066 -0.079530
v 1.132741 2.690835 -0.082993
v 0.147040 2.871606 -0.073910
v 0.476253 3.331311 -0.082089
v 0.815087 3.178982 -0.075267
v 0.806806 2.868292 -0.073214
v 1.157597 3.035838 -0.089505
v 0.476415 3.010591 -0.120290
v 0.477729 2.853759 -0.104347
v 1.124022 2.866466 -0.064511
v 1.176348 3.184188 -0.059464
v 0.507576 3.164940 -0.066766
v 1.462064 2.805335 -0.064509
v 0.356375 2.724926 -0.126322
v 0.147040 3.255347 -0.073910
v 1.320315 3.335390 -0.051375
v 1.465918 3.099797 -0.098266
v 0.937747 2.695813 -0.062435
v 0.147040 2.948354 -0.073910
v 0.650734 3.329944 -0.064503
v 0.812450 3.255176 -0.069453
v 0.851599 2.940085 -0.037137
v 1.320814 3.023525 -0.053859
v 0.622373 3.019091 -0.082258
v 1.481586 2.947622 -0.072726
v 0.671839 2.704133 -0.080629
v 0.147040 3.101851 -0.073910
v 0.957107 3.335915 -0.123280
v 1.447176 3.270336 -0.049738
v 1.318576 2.713586 -0.093715
v 0.147040 2.794858 -0.073910
v 0.306444 3.341453 -0.061065
v 0.810425 3.098812 -0.081930
v 0.847868 2.792129 -0.089364
v 0.983989 3.014289 -0.092938
v 0.313913 3.025109 -0.073892
v 0.443509 2.966023 -0.036113
v 0.480056 2.794482 -0.073910
v 0.626905 2.859877 -0.127373
v 0.271673 2.885604 -0.064413
v 1.107462 2.936323 -0.042506
v 1.126531 2.792479 -0.043697
v 1.347321 2.880206 -0.076179
v 1.005130 2.864940 -0.035980
v 1.147336 3.255641 -0.056866
v 1.105435 3.100159 -0.052406
v 1.291575 3.162888 -0.058500
v 0.988560 3.184805 -0.024740
v 0.455087 3.241733 -0.115717
v 0.441187 3.099716 -0.081311
v 0.646246 3.205199 -0.078703
v 0.317294 3.159812 -0.029437
v 0.311938 3.097891 -0.074380
v 0.678263 3.107060 -0.068657
v 0.649375 3.255800 -0.074819
v 0.990975 3.092823 -0.110723
v 1.315649 3.086551 -0.097726
v 1.275435 3.264433 -0.020360
v 0.945954 2.795045 -0.083614
v 1.293172 2.796165 -0.122976
v 1.270157 2.938905 -0.058904
v 0.341993 2.805181 -0.081136
v 0.644310 2.800276 -0.079727
v 0.626413 2.963705 -0.085915
v 0.303903 2.958625 -0.052520
v 0.950872 2.965472 -0.076478
v 0.955199 3.267076 -0.098934
v 0.312844 3.239061 -0.126928
vt 0.846309 0.820939
vt 0.961335 0.822661
vt 0.961745 0.927918
vt 0.846719 0.926196
vt 0.386206 0.814050
vt 0.501232 0.815772
vt 0.501642 0.921030
vt 0.386616 0.919308
vt 0.384564 0.393021
vt 0.499590 0.394743
vt 0.500000 0.500000
vt 0.384974 0.498278
vt 0.844667 0.399909
vt 0.959693 0.401631
vt 0.960103 0.506888
vt 0.845078 0.505166
vt 0.614615 0.396465
vt 0.729641 0.398187
vt 0.730052 0.503444
vt 0.615026 0.501722
vt 0.613794 0.185950
vt 0.728820 0.187672
vt 0.729231 0.292929
vt 0.614205 0.291207
vt 0.843846 0.189394
vt 0.958872 0.191116
vt 0.959282 0.296373
vt 0.844256 0.294651
vt 0.154512 0.389576
vt 0.269538 0.391299
vt 0.269948 0.496556
vt 0.154923 0.494834
vt 0.153691 0.179062
vt 0.268717 0.180784
vt 0.269127 0.286041
vt 0.154102 0.284319
vt 0.383743 0.182506
vt 0.498768 0.184228
vt 0.499179 0.289485
vt 0.384153 0.287763
vt 0.156154 0.810606
vt 0.271180 0.812328
vt 0.271591 0.917586
vt 0.156565 0.915864
vt 0.155333 0.600091
vt 0.270359 0.601813
vt 0.270769 0.707071
vt 0.155744 0.705349
vt 0.385385 0.603535
vt 0.500411 0.605258
vt 0.500821 0.710515
vt 0.385795 0.708793
vt 0.616257 0.817495
vt 0.731283 0.819217
vt 0.731694 0.924474
vt 0.616668 0.922752
vt 0.615436 0.606980
vt 0.730462 0.608702
vt 0.730873 0.713959
vt 0.615847 0.712237
vt 0.845488 0.610424
vt 0.960514 0.612146
vt 0.960924 0.717403
vt 0.845898 0.715681
vt 0.040307 0.598369
vt 0.040718 0.703627
vt 0.039897 0.493112
vt 0.041128 0.808884
vt 0.041539 0.914141
vt 0.268306 0.075526
vt 0.383332 0.077248
vt 0.498358 0.078970
vt 0.038665 0.177339
vt 0.039076 0.282597
vt 0.038255 0.072082
vt 0.153281 0.073804
vt 0.039486 0.387854
vt 0.728410 0.082414
vt 0.843435 0.084137
vt 0.958461 0.085859
vt 0.613384 0.080692
vn -0.108200 0.339600 -0.934300
vn -0.189500 -0.286600 -0.939100
vn -0.388900 0.001000 -0.921300
vn 0.070000 -0.152000 -0.985900
vn -0.016200 -0.624400 -0.780900
vn -0.055300 -0.554600 -0.830300
vn -0.001000 0.105400 -0.994400
vn 0.049700 -0.247700 -0.967600
vn -0.230800 0.230800 -0.945200
vn 0.133100 0.382700 -0.914200
vn 0.064800 -0.072100 -0.995300
vn -0.107800 0.225700 -0.968200
vn 0.054200 0.472700 -0.879600
vn 0.144100 0.238000 -0.960500
vn -0.001600 0.027900 -0.999600
vn 0.144200 0.300100 -0.943000
vn -0.130600 0.479700 -0.867700
vn -0.168400 0.191200 -0.967000
vn -0.001400 -0.003300 -1.000000
vn -0.035400 -0.024400 -0.999100
vn 0.092400 -0.214000 -0.972500
vn 0.115300 0.270300 -0.955800
vn -0.081000 -0.109700 -0.990700
vn 0.032600 0.076100 -0.996600
vn 0.129200 -0.285800 -0.949500
vn 0.063200 0.387800 -0.919600
vn 0.187600 0.189600 -0.963800
vn -0.256700 -0.413300 -0.873700
vn -0.092300 0.335800 -0.937400
vn -0.115600 -0.326200 -0.938200
vn -0.030500 -0.066700 -0.997300
vn -0.144400 -0.305300 -0.941200
vn -0.152600 0.297900 -0.942300
vn 0.160100 0.265600 -0.950700
vn 0.038000 0.168600 -0.984900
vn 0.053100 0.089200 -0.994600
vn 0.080500 -0.198000 -0.976900
vn 0.046400 -0.084100 -0.995400
vn 0.257000 -0.095700 -0.961700
vn -0.248100 0.010200 -0.968700
vn -0.139400 -0.049500 -0.989000
vn -0.146800 0.339900 -0.928900
vn -0.080400 0.237200 -0.968100
vn -0.112400 -0.154800 -0.981500
vn 0.226200 0.296900 -0.927700
vn -0.151700 0.260500 -0.953500
vn 0.113600 -0.177800 -0.977500
vn -0.020400 -0.058200 -0.998100
vn -0.038200 -0.006700 -0.999200
vn 0.216500 0.072100 -0.973600
vn 0.243600 0.339600 -0.908500
vn -0.199200 0.417900 -0.886400
vn -0.089100 -0.667900 -0.738900
vn -0.034400 0.396400 -0.917400
vn 0.104100 0.056400 -0.993000
vn 0.091500 -0.434700 -0.895900
vn 0.009200 -0.104100 -0.994500
vn -0.005200 -0.025900 -0.999700
vn 0.333200 0.009500 -0.942800
vn 0.004200 -0.420800 -0.907100
vn 0.082600 -0.379000 -0.921700
vn -0.016900 0.461100 -0.887200
vn -0.040400 -0.691600 -0.721200
vn -0.076800 -0.530000 -0.844500
usemtl None
s off
f 81/1/1 28/2/1 4/3/1 45/4/1
f 80/5/2 34/6/2 8/7/2 41/8/2
f 79/9/3 35/10/3 9/11/3 48/12/3
f 78/13/4 32/14/4 7/15/4 49/16/4
f 77/17/5 50/18/5 21/19/5 37/20/5
f 76/21/6 51/22/6 22/23/6 52/24/6
f 75/25/7 44/26/7 16/27/7 53/28/7
f 74/29/8 54/30/8 20/31/8 36/32/8
f 73/33/9 55/34/9 23/35/9 56/36/9
f 72/37/10 47/38/10 19/39/10 57/40/10
f 71/41/11 58/42/11 13/43/11 29/44/11
f 70/45/12 59/46/12 24/47/12 60/48/12
f 69/49/13 46/50/13 18/51/13 61/52/13
f 68/53/14 62/54/14 17/55/14 33/56/14
f 67/57/15 63/58/15 25/59/15 64/60/15
f 66/61/16 40/62/16 12/63/16 65/64/16
f 63/58/17 66/61/17 65/64/17 25/59/17
f 21/19/18 49/16/18 66/61/18 63/58/18
f 49/16/19 7/15/19 40/62/19 66/61/19
f 46/50/20 67/57/20 64/60/20 18/51/20
f 9/11/21 37/20/21 67/57/21 46/50/21
f 37/20/22 21/19/22 63/58/22 67/57/22
f 34/6/23 68/53/23 33/56/23 8/7/23
f 18/51/24 64/60/24 68/53/24 34/6/24
f 64/60/25 25/59/25 62/54/25 68/53/25
f 59/46/26 69/49/26 61/52/26 24/47/26
f 20/31/27 48/12/27 69/49/27 59/46/27
f 48/12/28 9/11/28 46/50/28 69/49/28
f 30/65/29 70/45/29 60/48/29 14/66/29
f 5/67/30 36/32/30 70/45/30 30/65/30
f 36/32/31 20/31/31 59/46/31 70/45/31
f 42/68/32 71/41/32 29/44/32 3/69/32
f 14/66/33 60/48/33 71/41/33 42/68/33
f 60/48/34 24/47/34 58/42/34 71/41/34
f 55/34/35 72/37/35 57/40/35 23/35/35
f 15/70/36 31/71/36 72/37/36 55/34/36
f 31/71/37 6/72/37 47/38/37 72/37/37
f 26/73/38 73/33/38 56/36/38 10/74/38
f 1/75/39 43/76/39 73/33/39 26/73/39
f 43/76/40 15/70/40 55/34/40 73/33/40
f 38/77/41 74/29/41 36/32/41 5/67/41
f 10/74/42 56/36/42 74/29/42 38/77/42
f 56/36/43 23/35/43 54/30/43 74/29/43
f 51/22/44 75/25/44 53/28/44 22/23/44
f 11/78/45 27/79/45 75/25/45 51/22/45
f 27/79/46 2/80/46 44/26/46 75/25/46
f 47/38/47 76/21/47 52/24/47 19/39/47
f 6/72/48 39/81/48 76/21/48 47/38/48
f 39/81/49 11/78/49 51/22/49 76/21/49
f 35/10/50 77/17/50 37/20/50 9/11/50
f 19/39/51 52/24/51 77/17/51 35/10/51
f 52/24/52 22/23/52 50/18/52 77/17/52
f 50/18/53 78/13/53 49/16/53 21/19/53
f 22/23/54 53/28/54 78/13/54 50/18/54
f 53/28/55 16/27/55 32/14/55 78/13/55
f 54/30/56 79/9/56 48/12/56 20/31/56
f 23/35/57 57/40/57 79/9/57 54/30/57
f 57/40/58 19/39/58 35/10/58 79/9/58
f 58/42/59 80/5/59 41/8/59 13/43/59
f 24/47/60 61/52/60 80/5/60 58/42/60
f 61/52/61 18/51/61 34/6/61 80/5/61
f 62/54/62 81/1/62 45/4/62 17/55/62
f 25/59/63 65/64/63 81/1/63 62/54/63
f 65/64/64 12/63/64 28/2/64 81/1/64
