# Blender v2.76 (sub 0) OBJ File: 'tombstone2.blend'
# www.blender.org
mtllib tombstone2.mtl
o Stone
v 0.266838 0.000000 -0.000000
v 0.288713 0.524950 0.000000
v 0.271379 0.455068 0.000000
v 0.310588 0.559572 0.000000
v 0.332463 0.591245 0.000000
v 0.354337 0.614402 0.000000
v 0.376212 0.633941 0.000000
v 0.398087 0.650586 0.000000
v 0.419962 0.664335 0.000000
v 0.441836 0.678085 0.000000
v 0.463711 0.689659 0.000000
v 0.485586 0.698426 0.000000
v 0.704334 0.000000 -0.000000
v 0.507461 0.689659 0.000000
v 0.529335 0.678085 0.000000
v 0.551210 0.664335 0.000000
v 0.573085 0.650586 0.000000
v 0.594960 0.633941 0.000000
v 0.616835 0.614402 0.000000
v 0.638709 0.591245 0.000000
v 0.660584 0.559572 0.000000
v 0.682459 0.524950 0.000000
v 0.699793 0.455068 0.000000
v 0.704334 0.000000 -0.062499
v 0.699793 0.455068 -0.062499
v 0.682459 0.524950 -0.062499
v 0.660584 0.559572 -0.062499
v 0.638709 0.591245 -0.062499
v 0.616835 0.614402 -0.062499
v 0.594960 0.633941 -0.062499
v 0.573085 0.650586 -0.062499
v 0.551210 0.664335 -0.062499
v 0.529335 0.678085 -0.062499
v 0.507461 0.689659 -0.062499
v 0.266838 0.000000 -0.062499
v 0.485586 0.698426 -0.062499
v 0.463711 0.689659 -0.062499
v 0.441836 0.678085 -0.062499
v 0.419962 0.664335 -0.062499
v 0.398087 0.650586 -0.062499
v 0.376212 0.633941 -0.062499
v 0.354337 0.614402 -0.062499
v 0.332463 0.591245 -0.062499
v 0.310588 0.559572 -0.062499
v 0.288713 0.524950 -0.062499
v 0.271379 0.455068 -0.062499
vt 0.577743 0.096880
vt 0.600746 0.760330
vt 0.582043 0.672920
vt 0.621220 0.803872
vt 0.641693 0.843705
vt 0.662167 0.872828
vt 0.682641 0.897402
vt 0.703115 0.918334
vt 0.723589 0.935626
vt 0.744063 0.952919
vt 0.764537 0.967474
vt 0.785011 0.978500
vt 0.805485 0.961224
vt 0.980536 0.097076
vt 0.826740 0.943544
vt 0.846433 0.925470
vt 0.866907 0.906616
vt 0.887381 0.883339
vt 0.907855 0.857204
vt 0.928329 0.825736
vt 0.948803 0.784230
vt 0.963585 0.748946
vt 0.981818 0.667421
vt 0.084046 0.608668
vt 0.030828 0.608519
vt 0.030828 0.036208
vt 0.086779 0.036615
vt 0.105339 0.696630
vt 0.124268 0.740953
vt 0.144759 0.782348
vt 0.168686 0.812185
vt 0.191002 0.839823
vt 0.212127 0.857116
vt 0.233252 0.876169
vt 0.253726 0.891966
vt 0.273791 0.907289
vt 0.504405 0.036634
vt 0.292395 0.920688
vt 0.314739 0.904014
vt 0.335622 0.889975
vt 0.356096 0.872205
vt 0.376570 0.855086
vt 0.397044 0.833868
vt 0.416975 0.809618
vt 0.438063 0.779609
vt 0.458066 0.740265
vt 0.480998 0.696723
vt 0.500501 0.608792
vt 0.557629 0.609443
vt 0.537835 0.696592
vt 0.516350 0.740134
vt 0.490309 0.793313
vt 0.460226 0.839868
vt 0.427773 0.881163
vt 0.395581 0.915166
vt 0.335883 0.969109
vt 0.295586 0.995840
vt 0.274294 0.982020
vt 0.253987 0.966582
vt 0.225701 0.943945
vt 0.201321 0.918444
vt 0.137978 0.844786
vt 0.098862 0.790197
vt 0.071843 0.739948
vt 0.578123 0.023062
vt 0.558212 0.035552
vt 0.459710 0.839754
vt 0.366513 0.945393
vt 0.314591 0.982633
vt 0.170691 0.886042
vt 0.137663 0.844841
vt 0.049965 0.696406
vt 0.982134 0.022281
vn 0.000000 -0.000000 1.000000
vn 1.000000 0.010000 0.000000
vn -0.000000 0.000000 -1.000000
vn -1.000000 0.010000 0.000000
vn -0.970600 0.240800 0.000000
vn -0.845400 0.534100 0.000000
vn -0.822800 0.568300 0.000000
vn -0.727000 0.686700 0.000000
vn -0.666200 0.745800 0.000000
vn -0.605500 0.795800 0.000000
vn -0.532200 0.846600 0.000000
vn -0.467700 0.883900 0.000000
vn -0.372000 0.928200 0.000000
vn 0.372000 0.928200 0.000000
vn 0.467700 0.883900 0.000000
vn 0.532200 0.846600 0.000000
vn 0.605500 0.795800 0.000000
vn 0.666200 0.745800 0.000000
vn 0.727000 0.686700 0.000000
vn 0.822800 0.568300 0.000000
vn 0.845400 0.534100 0.000000
vn 0.970600 0.240800 0.000000
vn 0.000000 -1.000000 -0.000000
vn 0.970600 0.240700 0.000000
usemtl Stone
s off
f 1/1/1 2/2/1 3/3/1
f 1/1/1 4/4/1 2/2/1
f 1/1/1 5/5/1 4/4/1
f 1/1/1 6/6/1 5/5/1
f 1/1/1 7/7/1 6/6/1
f 1/1/1 8/8/1 7/7/1
f 1/1/1 9/9/1 8/8/1
f 1/1/1 10/10/1 9/9/1
f 1/1/1 11/11/1 10/10/1
f 1/1/1 12/12/1 11/11/1
f 14/13/1 12/12/1 1/1/1
f 13/14/1 15/15/1 14/13/1
f 13/14/1 16/16/1 15/15/1
f 13/14/1 17/17/1 16/16/1
f 13/14/1 18/18/1 17/17/1
f 13/14/1 19/19/1 18/18/1
f 13/14/1 20/20/1 19/19/1
f 13/14/1 21/21/1 20/20/1
f 13/14/1 22/22/1 21/21/1
f 13/14/1 23/23/1 22/22/1
f 25/24/2 23/25/2 13/26/2
f 24/27/3 26/28/3 25/24/3
f 24/27/3 27/29/3 26/28/3
f 24/27/3 28/30/3 27/29/3
f 24/27/3 29/31/3 28/30/3
f 24/27/3 30/32/3 29/31/3
f 24/27/3 31/33/3 30/32/3
f 24/27/3 32/34/3 31/33/3
f 24/27/3 33/35/3 32/34/3
f 24/27/3 34/36/3 33/35/3
f 35/37/3 36/38/3 34/36/3
f 35/37/3 37/39/3 36/38/3
f 35/37/3 38/40/3 37/39/3
f 35/37/3 39/41/3 38/40/3
f 35/37/3 40/42/3 39/41/3
f 35/37/3 41/43/3 40/42/3
f 35/37/3 42/44/3 41/43/3
f 35/37/3 43/45/3 42/44/3
f 35/37/3 44/46/3 43/45/3
f 35/37/3 45/47/3 44/46/3
f 35/37/3 46/48/3 45/47/3
f 3/49/4 46/48/4 35/37/4
f 45/47/5 46/48/5 3/49/5
f 44/46/6 45/47/6 2/50/6
f 43/45/7 44/46/7 4/51/7
f 42/44/8 43/45/8 5/52/8
f 41/43/9 42/44/9 6/53/9
f 40/42/10 41/43/10 7/54/10
f 39/41/11 40/42/11 8/55/11
f 10/56/11 38/40/11 39/41/11
f 37/39/12 38/40/12 10/56/12
f 12/57/13 36/38/13 37/39/13
f 34/36/14 36/38/14 12/57/14
f 33/35/15 34/36/15 14/58/15
f 32/34/16 33/35/16 15/59/16
f 31/33/16 32/34/16 16/60/16
f 30/32/17 31/33/17 17/61/17
f 19/62/18 29/31/18 30/32/18
f 20/63/19 28/30/19 29/31/19
f 21/64/20 27/29/20 28/30/20
f 26/28/21 27/29/21 21/64/21
f 23/25/22 25/24/22 26/28/22
f 13/14/23 1/1/23 35/65/23
f 13/14/1 14/13/1 1/1/1
f 24/27/2 25/24/2 13/26/2
f 24/27/3 35/37/3 34/36/3
f 1/66/4 3/49/4 35/37/4
f 2/50/5 45/47/5 3/49/5
f 4/51/6 44/46/6 2/50/6
f 5/52/7 43/45/7 4/51/7
f 6/67/8 42/44/8 5/52/8
f 7/54/9 41/43/9 6/53/9
f 8/55/10 40/42/10 7/54/10
f 9/68/11 39/41/11 8/55/11
f 9/68/11 10/56/11 39/41/11
f 11/69/12 37/39/12 10/56/12
f 11/69/13 12/57/13 37/39/13
f 14/58/14 34/36/14 12/57/14
f 15/59/15 33/35/15 14/58/15
f 16/60/16 32/34/16 15/59/16
f 17/61/16 31/33/16 16/60/16
f 18/70/17 30/32/17 17/61/17
f 18/70/18 19/62/18 30/32/18
f 19/71/19 20/63/19 29/31/19
f 20/63/20 21/64/20 28/30/20
f 22/72/21 26/28/21 21/64/21
f 22/72/24 23/25/24 26/28/24
f 24/73/23 13/14/23 35/65/23
